<svg width="83" height="81" viewBox="0 0 83 81" fill="none" xmlns="http://www.w3.org/2000/svg">
<g clip-path="url(#clip0_4170_290399)">
<path d="M68.6632 25.7397L68.6493 15.443L53.3553 0.218994H29.3769L13.888 15.3935L13.9092 25.722C6.37041 28.3104 0.357322 31.4073 0.357322 31.4073L0.290039 70.9057L4.83394 73.8542L10.8359 70.2407L13.6009 64.8882L29.4058 80.2027L53.2702 80.1383L65.5382 67.9646C66.0847 68.7187 66.9732 69.2089 67.9871 69.2089C69.1189 69.2089 70.0996 68.5936 70.6166 67.6813C73.8601 70.1212 81.7581 76.4691 81.7581 76.4691L81.7673 31.3027C81.7673 31.3027 73.9838 27.441 68.6639 25.7403" fill="white"/>
<path d="M67.99 64.908C66.9944 64.908 66.1831 65.7193 66.1831 66.715C66.1831 67.7107 66.9944 68.522 67.99 68.522C68.9857 68.522 69.797 67.7107 69.797 66.715C69.797 65.6824 68.9857 64.908 67.99 64.908ZM67.99 68.1163C67.2156 68.1163 66.5887 67.4894 66.5887 66.715C66.5887 65.9406 67.2156 65.3137 67.99 65.3137C68.7644 65.3137 69.3913 65.9406 69.3913 66.715C69.3913 67.4526 68.7644 68.1163 67.99 68.1163Z" fill="black"/>
<path d="M68.7275 66.2724C68.7275 65.9405 68.4694 65.6824 68.1006 65.6824H67.2524V67.7475H67.6212V66.8993H67.8793L68.285 67.7475H68.7275L68.3219 66.8625C68.58 66.7518 68.7275 66.5306 68.7275 66.2724ZM68.1375 66.4937H67.6581V66.0511H68.1375C68.2481 66.0511 68.3587 66.1618 68.3587 66.2724C68.3587 66.383 68.2481 66.4937 68.1375 66.4937Z" fill="black"/>
<path d="M38.6848 22.8143L36.5273 24.931V39.3008L38.8692 41.5213H42.8066L42.8353 54.6211H39.6699V45.8091H36.5273V55.4386L38.6907 57.5613L43.9501 57.5944L46.0855 55.4387L46.025 40.074L43.7208 37.8697L39.7479 37.8726L39.7376 26.0795L42.917 26.0935L42.9244 33.6549L46.0426 33.6497L46.0522 24.921L43.9338 22.8145H38.6846L38.6848 22.8143ZM46.741 27.426L46.7469 30.4263C47.6037 30.5087 48.914 30.6559 48.914 30.6559L48.911 50.928C49.9802 51.0825 51.0965 51.2186 52.0684 51.3907L51.9698 31.0288C51.9698 31.0288 53.1628 31.1966 54.2504 31.3827V28.3544C51.6594 27.8975 49.3448 27.6547 46.7389 27.4251L46.741 27.426ZM32.1783 27.8019C30.8179 27.9837 29.4486 28.147 28.0756 28.4031L26.3686 30.6405L26.3944 50.5526L27.9399 51.9395C29.6874 51.5194 30.9962 51.3067 32.6839 51.0485L34.0989 49.1922L34.1623 29.7479L32.1781 27.8018L32.1783 27.8019ZM56.8565 28.8312L54.9541 30.5683L54.9571 52.0146C55.9178 52.2633 56.8646 52.459 57.7937 52.757V42.0689L59.6518 42.5979V53.3942C60.6111 53.7473 61.5505 54.0541 62.4685 54.4588V32.6476L60.8397 29.7223C59.4557 29.35 58.2413 29.1286 56.8566 28.8328V28.8313L56.8565 28.8312ZM24.8218 29.0211C23.8663 29.2396 22.9099 29.4235 21.9565 29.6788L21.8975 53.7054C22.8605 53.3831 23.7431 53.0778 24.8137 52.7585L24.8218 29.0211H24.8218ZM20.3867 30.0997C19.395 30.3859 18.4069 30.6022 17.4196 30.9664V40.7349L15.4885 41.4736L15.4538 31.5589C14.4562 31.9172 13.5272 32.185 12.5421 32.5845L12.5376 58.3576C13.5847 57.6366 14.3921 57.2481 15.6514 56.4866L15.6212 44.7102C15.6212 44.7102 16.7361 44.2268 17.5884 43.937L17.6172 55.4718C18.5772 55.0061 19.378 54.6978 20.3837 54.2733L20.3867 30.0995L20.3867 30.0997ZM63.4307 30.4101V30.4116L63.4418 33.5385C63.6615 33.6011 65.7681 34.2544 65.7681 34.2544L65.7732 55.8682C66.8114 56.3862 67.7095 56.8718 68.6393 57.4729L68.6481 35.2585C68.6481 35.2585 71.2141 36.2488 71.3999 36.3305V33.1043C68.8428 32.0183 66.0606 31.2127 63.4308 30.41L63.4307 30.4101ZM31.1733 31.0959L31.2493 48.2563L29.2444 48.6301L29.3108 31.3644L31.1733 31.0959H31.1733ZM57.821 32.1075H57.8224L59.5883 32.5445L59.5839 39.4215L57.8224 38.9793L57.821 32.1073V32.1075ZM72.3578 33.4855C72.3601 33.4862 72.363 33.4869 72.3652 33.4885V33.4872L72.3578 33.4859V33.4855ZM72.3652 33.4885L72.4441 66.2379C74.5832 67.8609 77.7242 70.3434 79.6856 72.0054V68.0789C78.3436 66.9951 75.5858 64.7761 75.5858 64.7761V52.8263C75.5858 52.8263 78.4246 54.3633 79.6856 55.1314V51.4035C78.4542 50.6331 75.4607 49.0484 75.4607 49.0484L75.468 38.1793C75.468 38.1793 78.2478 39.5581 79.6929 40.3718V36.9236C77.3703 35.5588 74.8116 34.5846 72.3651 33.489L72.3652 33.4885ZM8.48911 34.1506C6.95099 34.8695 5.47787 35.5397 4.00303 36.3638L2.49951 39.2265V69.8012L4.87863 71.3919C5.27585 71.1447 9.00956 68.8859 9.24775 68.755L10.645 65.7678L10.6738 35.7429L8.48902 34.1508L8.48911 34.1506ZM7.74144 37.7976L7.73924 66.1687L5.55418 67.6504L5.56864 38.9417L7.74147 37.7977L7.74144 37.7976Z" fill="black"/>
<path d="M30.2246 2.28502L15.9614 16.2585L15.9844 27.2239C11.5309 28.6466 6.86049 30.3443 2.54492 32.663V34.9736C7.28955 32.241 14.3776 29.8807 18.2253 28.7533V17.289L31.2026 4.55536L51.5356 4.55105L64.3618 17.2008L64.346 28.7113C68.7841 29.9556 75.4217 32.4694 79.6962 34.8487V32.5365C75.399 30.2333 71.1413 28.6896 66.5977 27.2394L66.5833 16.2995L52.5015 2.28284H30.2269L30.2246 2.28502ZM36.9729 18.4883L32.2132 23.1383V25.8959C33.0224 25.792 33.6507 25.7628 34.4525 25.6846V24.0508L37.8627 20.73H44.7868L48.1164 24.035V25.6473C48.9183 25.7228 49.5726 25.8221 50.3818 25.9232V23.1412L45.7331 18.4882H36.9725L36.9729 18.4883ZM48.1814 52.581V56.2886L44.8547 59.6123L37.8369 59.6238L34.457 56.346V52.5968C33.6423 52.7016 33.0096 52.72 32.2133 52.8597V57.2626L36.9109 61.8553L45.7132 61.92L50.3964 57.2096L50.4079 52.9116C49.6116 52.7755 48.9953 52.6823 48.1815 52.5811L48.1814 52.581ZM18.2309 57.0557C15.8769 58.197 14.2281 59.2071 12.5395 60.4414V63.1027C13.5561 62.2952 14.8159 61.2364 15.9598 60.5678V63.9492L30.2614 78.1367L52.4135 78.1583L66.5817 64.0108V60.6956C68.1826 61.6539 69.6008 62.6198 70.9179 63.7363V61.1224C68.9889 59.6509 66.8267 58.2182 64.3667 57.0559L64.3537 63.0178L51.5496 75.9147L31.1426 75.9033L18.2301 63.0896V57.0555L18.2309 57.0557Z" fill="#B0B7BC"/>
<path d="M32.0331 6.62751L20.2812 18.1735V28.1863C23.626 27.2527 26.8374 26.682 30.1463 26.1845V22.2314L36.1026 16.4346H46.5981L52.4394 22.2704V26.1589C55.7464 26.6445 58.94 27.2535 62.2861 28.175V18.2272L50.6627 6.62744H32.0328L32.0331 6.62751ZM52.4555 53.21L52.4469 58.0771L46.6532 63.9918L36.0552 63.9157L30.1407 58.0914V53.2414C26.6504 53.9302 23.2307 54.9195 20.3015 56.1786V62.2097L31.9886 73.6941L50.7076 73.8392L62.2936 62.1549L62.2949 56.1696C59.2137 54.8674 56.0781 53.9203 52.4557 53.2094L52.4555 53.21Z" fill="#CE0F3D"/>
</g>
<defs>
<clipPath id="clip0_4170_290399">
<rect width="82.1333" height="80.64" fill="white"/>
</clipPath>
</defs>
</svg>
